HIERARCHY
ROOT Hips
{
	OFFSET 0.00000 0.00000 0.00000
	CHANNELS 6 Xposition Yposition Zposition Yrotation Zrotation Xrotation 
	JOINT Lumbar
	{
		OFFSET 0 0 0
		CHANNELS 3 Zrotation Xrotation Yrotation
		JOINT Neck
		{
			OFFSET 0.00 0.2701 0.00
			CHANNELS 3 Zrotation Xrotation Yrotation
			End Site
			{
				OFFSET 0.00 0.1379 0.00
			}
		}
		JOINT RightShoulder
		{
			OFFSET 0.0119 0.2289 0.1181
			CHANNELS 3 Zrotation Xrotation Yrotation
			JOINT RightElbow
			{
				OFFSET 0.00 -0.1475 0.00
				CHANNELS 2 Zrotation Yrotation
				JOINT RightWrist
				{
					OFFSET 0.00 -0.1605 0.00
					CHANNELS 2 Zrotation Xrotation
					End Site
					{
						OFFSET 0.0040 -0.1068 0.0006
					}
				}
			}
		}
		JOINT LeftShoulder
		{
			OFFSET 0.0119 0.2289 -0.1181
			CHANNELS 3 Zrotation Xrotation Yrotation
			JOINT LeftElbow
			{
				OFFSET 0.00 -0.1475 0.00
				CHANNELS 2 Zrotation Yrotation
				JOINT LeftWrist
				{
					OFFSET 0.00 -0.1605 0.00
					CHANNELS 2 Zrotation Xrotation
					End Site
					{
						OFFSET 0.0040 -0.1068 -0.0006
					}
				}
			}
		}
	}
	JOINT RightHip
	{
		OFFSET 0.0316 -0.0424 0.0458
		CHANNELS 3 Zrotation Xrotation Yrotation
		JOINT RightKnee
		{
			OFFSET 0.00 -0.2438 0.00
			CHANNELS 1 Zrotation
			JOINT RightAnkle
			{
				OFFSET 0.00 -0.2449 0.00
				CHANNELS 3 Zrotation Xrotation Yrotation
				End Site
				{
					OFFSET 0.1237 -0.0542 0.0051
				}
			}
		}
	}
	JOINT LeftHip
	{
		OFFSET 0.0316 -0.0424 -0.0458
		CHANNELS 3 Zrotation Xrotation Yrotation
		JOINT LeftKnee
		{
			OFFSET 0.00 -0.2438 0.00
			CHANNELS 1 Zrotation
			JOINT LeftAnkle
			{
				OFFSET 0.00 -0.2449 0.00
				CHANNELS 3 Zrotation Xrotation Yrotation
				End Site
				{
					OFFSET 0.1237 -0.0542 -0.0051
				}
			}
		}
	}
}
MOTION
Frames: 14
Frame Time: 0.02
-0 0.57926 0 182.7651 0 3.09494 9.36047 -1.38538 -1.00456 -36.14751 3.45493 3.38215 26.70431 -14.41051 -1.54761 10.36023 83.85698 1.06707 1.82519 29.21874 3.2777 1.19096 8.52701 -76.29191 -4.36111 -1.36181 2.37125 2.38832 15.87752 -21.04373 10.69042 -9.72324 -14.44047 0.95753 -2.78021 -7.17741 -16.16291 7.63584 7.8269 13.64139
0.00024 0.57924 -0.00013 182.7963 0 3.10432 9.34587 -1.37361 -0.98984 -36.05645 3.41905 3.40618 26.7076 -14.43916 -1.27661 10.34493 83.85807 1.04477 1.85149 29.2559 3.34313 0.77062 8.55356 -76.21184 -4.40851 -1.27444 2.41624 2.41256 15.93121 -21.10066 10.68969 -9.7243 -14.52599 1.01796 -2.78694 -7.22366 -16.22603 7.6323 7.82205 13.66359
0.00048 0.57921 -0.00026 182.82909 0 3.11372 9.33104 -1.36171 -0.97507 -35.9657 3.38256 3.42867 26.7106 -14.46633 -1.00664 10.3301 83.85894 1.02247 1.87719 29.29288 3.40966 0.35108 8.58066 -76.1324 -4.45625 -1.18716 2.46107 2.43641 15.98221 -21.15724 10.68905 -9.72525 -14.61082 1.07897 -2.79389 -7.27129 -16.28973 7.62893 7.8173 13.68577
0.00072 0.57919 -0.00039 182.86396 0 3.12299 9.31517 -1.34954 -0.96088 -35.87268 3.34561 3.448 26.71118 -14.49108 -0.73658 10.31692 83.85883 0.99952 1.90116 29.32593 3.47776 -0.06704 8.60982 -76.05506 -4.50552 -1.0997 2.50566 2.45991 16.02914 -21.21301 10.68835 -9.72499 -14.69441 1.14125 -2.8009 -7.32154 -16.35497 7.62525 7.81241 13.70806
0.00095 0.57916 -0.00052 182.88217 0 3.1326 9.30485 -1.33924 -0.94476 -35.78843 3.3139 3.48743 26.72296 -14.53255 -0.46507 10.29497 83.86377 0.97947 1.93477 29.37539 3.53331 -0.48981 8.62756 -75.96703 -4.54633 -1.01355 2.55147 2.48643 16.10511 -21.27314 10.68743 -9.73019 -14.78536 1.19487 -2.80649 -7.35393 -16.41039 7.62206 7.80765 13.72972
0.00121 0.57913 -0.00065 182.93945 0 3.14171 9.28279 -1.32471 -0.93194 -35.68791 3.26923 3.48203 26.71217 -14.53597 -0.19821 10.2916 83.85813 0.95366 1.94763 29.39307 3.61819 -0.90432 8.66979 -75.90139 -4.60524 -0.9245 2.59466 2.50571 16.11448 -21.32394 10.68735 -9.72449 -14.86011 1.26805 -2.81583 -7.42676 -16.48766 7.61859 7.80305 13.75275
0.00153 0.57913 -0.00077 183.07939 0 3.14775 9.22699 -1.30005 -0.93487 -35.52156 3.20194 3.36687 26.62847 -14.4522 0.07267 10.3406 83.82149 0.90819 1.90506 29.29719 3.76648 -1.29156 8.78047 -75.90052 -4.71558 -0.82674 2.63127 2.51173 15.97582 -21.34979 10.68682 -9.68182 -14.89575 1.38834 -2.83002 -7.59406 -16.62011 7.60828 7.79553 13.78011
0.00188 0.57914 -0.00087 183.26456 0 3.15365 9.15986 -1.2708 -0.93986 -35.34386 3.11881 3.20346 26.52505 -14.32627 0.33528 10.40771 83.77476 0.85794 1.84165 29.17525 3.94827 -1.67269 8.91582 -75.92155 -4.84406 -0.72622 2.6649 2.50909 15.76286 -21.36607 10.68774 -9.62936 -14.91438 1.52988 -2.84907 -7.80518 -16.77582 7.59903 7.78896 13.80893
0.00222 0.57915 -0.00096 183.44443 0 3.16065 9.09827 -1.24263 -0.93966 -35.18296 3.03464 3.05317 26.43585 -14.20832 0.59203 10.46655 83.7334 0.81178 1.78589 29.08013 4.12575 -2.05878 9.03948 -75.93084 -4.96344 -0.62715 2.6998 2.50617 15.56073 -21.38632 10.68975 -9.58583 -14.93677 1.66622 -2.86941 -8.00812 -16.92427 7.59293 7.78391 13.83657
0.00253 0.57915 -0.00112 183.55591 0 3.16309 9.03362 -1.21877 -0.95764 -34.96717 2.98634 2.94121 26.31942 -14.13902 0.89255 10.52764 83.68752 0.75596 1.73581 28.91613 4.25511 -2.43162 9.16518 -75.94834 -5.0864 -0.52673 2.73608 2.52151 15.45669 -21.40838 10.68408 -9.52345 -14.97456 1.78332 -2.87475 -8.16296 -17.0583 7.57054 7.76989 13.86578
0.00291 0.57916 -0.00113 183.82557 0 3.17523 8.97444 -1.18477 -0.93795 -34.87025 2.85817 2.73652 26.26132 -13.95654 1.09592 10.58572 83.65019 0.72111 1.67146 28.89653 4.49519 -2.8356 9.29245 -75.95309 -5.20623 -0.42913 2.76749 2.49619 15.1291 -21.42413 10.69513 -9.49794 -14.9779 1.94603 -2.9128 -8.42655 -17.22845 7.58356 7.77567 13.89283
0.0035 0.57919 -0.00075 184.47815 0 3.21211 8.91681 -1.12459 -0.81619 -35.03856 2.52641 2.30143 26.31324 -13.48958 1.06738 10.65427 83.62527 0.72713 1.55124 29.2174 5.00955 -3.2834 9.41874 -75.92506 -5.31272 -0.33387 2.79721 2.36564 14.21582 -21.42687 10.74857 -9.5768 -14.87597 2.22564 -3.03724 -8.9957 -17.48759 7.68252 7.82769 13.9067
0.00415 0.57922 -0.00021 185.2962 0 3.25905 8.86738 -1.05428 -0.65601 -35.33648 2.11313 1.77323 26.43349 -12.9084 0.93488 10.71534 83.61159 0.75709 1.4214 29.69397 5.63721 -3.77004 9.54576 -75.88238 -5.4154 -0.24239 2.82013 2.19362 13.07761 -21.42309 10.81927 -9.6929 -14.74249 2.55116 -3.19492 -9.66983 -17.783 7.8186 7.9007 13.91935
0.00475 0.57925 0.00029 186.06677 0 3.30289 8.82584 -0.98808 -0.51184 -35.62163 1.72763 1.27717 26.561 -12.36588 0.82759 10.764 83.60205 0.78895 1.31007 30.14498 6.22993 -4.26868 9.67182 -75.84077 -5.52012 -0.15355 2.83886 2.03726 12.03354 -21.42107 10.88449 -9.79204 -14.63302 2.85817 -3.33919 -10.28536 -18.06541 7.94606 7.97001 13.93746
